<?xml version="1.0" encoding="iso-8859-1"?>
<!-- Generator: Adobe Illustrator 19.0.0, SVG Export Plug-In . SVG Version: 6.00 Build 0)  -->
<svg version="1.1" id="Layer_1" xmlns="http://www.w3.org/2000/svg" xmlns:xlink="http://www.w3.org/1999/xlink" x="0px" y="0px"
	 viewBox="0 0 502 502" style="enable-background:new 0 0 502 502;" xml:space="preserve">
<g>
	<g>
		<g>
			<path d="M413.862,56.858c-0.017-0.017-0.032-0.034-0.049-0.051c-0.016-0.016-0.034-0.031-0.05-0.048
				C377.135,20.157,328.451,0,276.668,0c-51.807,0-100.512,20.174-137.145,56.807s-56.808,85.338-56.808,137.145
				s20.175,100.512,56.808,137.145c36.633,36.632,85.338,56.807,137.145,56.807c51.791,0,100.483-20.164,137.113-56.777
				c0.01-0.01,0.021-0.02,0.032-0.03c0.019-0.021,0.038-0.042,0.058-0.062c36.595-36.626,56.749-85.306,56.749-137.084
				C470.62,142.169,450.463,93.485,413.862,56.858z M399.63,70.91c0.013,0.013,0.026,0.025,0.039,0.038
				c0.02,0.02,0.039,0.041,0.06,0.061c15.552,15.615,18.375,42.813,7.945,76.601c-10.143,32.855-31.536,67.647-60.729,99.018
				l-56.135-56.135l52.772-52.772c6.083,6.357,11.908,12.921,17.36,19.595c3.494,4.277,9.795,4.912,14.07,1.418
				c4.277-3.494,4.912-9.794,1.418-14.071c-5.872-7.188-12.145-14.256-18.699-21.09l22.246-22.246
				c3.905-3.905,3.905-10.237,0-14.143c-3.906-3.905-10.236-3.905-14.143,0l-22.341,22.341
				c-14.855-13.873-30.489-26.127-46.404-36.444c8.708-4.095,17.379-7.5,25.918-10.136C356.809,52.512,384.018,55.34,399.63,70.91z
				 M276.668,204.637l56.234,56.234c-17.886,17.125-36.969,31.709-56.234,43.105c-19.265-11.396-38.348-25.981-56.234-43.106
				L276.668,204.637z M276.667,176.352l-52.678-52.678c16.849-15.679,34.685-29.103,52.678-39.747
				c17.994,10.644,35.829,24.068,52.678,39.747L276.667,176.352z M276.668,20c26.509,0,52.11,5.899,75.314,17.06
				c-10.901,0.737-22.577,2.98-34.874,6.776c-13.325,4.113-26.905,9.897-40.441,17.152c-13.535-7.255-27.116-13.039-40.441-17.152
				c-12.296-3.796-23.972-6.039-34.873-6.776C224.557,25.899,250.158,20,276.668,20z M230.327,62.947
				c8.54,2.636,17.211,6.041,25.919,10.136c-15.916,10.316-31.551,22.57-46.405,36.443l-46.073-46.073
				C179.838,54.747,202.913,54.483,230.327,62.947z M148.807,76.778l46.798,46.798c-9.226,9.619-17.859,19.669-25.711,29.965
				c-3.349,4.392-2.503,10.667,1.889,14.016c4.39,3.35,10.665,2.503,14.016-1.888c7.314-9.592,15.356-18.963,23.953-27.947
				l52.772,52.772l-56.135,56.135c-29.192-31.371-50.586-66.163-60.728-99.018C136.416,117.661,137.591,92.895,148.807,76.778z
				 M145.189,241.847c1.578-5.293-1.434-10.862-6.727-12.44c-5.293-1.576-10.862,1.434-12.439,6.727
				c-3.475,11.659-5.543,22.753-6.241,33.144c-11.165-23.208-17.066-48.812-17.066-75.326c0-26.51,5.899-52.11,17.06-75.314
				c0.737,10.901,2.98,22.576,6.776,34.873c11.07,35.861,34.225,73.574,65.69,107.266l-46.066,46.066
				C137.655,291.084,137.226,268.561,145.189,241.847z M159.494,321.81l46.796-46.796c15.905,15.261,32.767,28.664,49.956,39.806
				c-8.708,4.095-17.379,7.5-25.919,10.136C200.376,334.203,175.609,333.027,159.494,321.81z M276.668,367.902
				c-26.519,0-52.128-5.903-75.339-17.071c10.91-0.735,22.589-2.964,34.898-6.764c13.325-4.113,26.906-9.897,40.441-17.152
				c13.535,7.255,27.116,13.039,40.441,17.152c12.311,3.8,23.988,6.03,34.897,6.764
				C328.795,361.999,303.187,367.902,276.668,367.902z M323.008,324.958c-8.54-2.636-17.211-6.041-25.918-10.136
				c17.188-11.144,34.05-24.547,49.955-39.807l46.796,46.796C377.724,333.027,352.959,334.202,323.008,324.958z M429.568,244.418
				c-1.319-5.363-6.732-8.637-12.1-7.321c-5.362,1.32-8.641,6.737-7.32,12.1c5.763,23.424,4.644,43.358-3.01,57.626l-46.044-46.044
				c31.465-33.693,54.62-71.406,65.69-107.267c3.796-12.296,6.039-23.972,6.777-34.872c11.16,23.204,17.059,48.804,17.059,75.312
				c-0.001,26.538-5.913,52.165-17.098,75.39C433.006,261.412,431.7,253.082,429.568,244.418z"/>
			<path d="M390.359,388.512c-88.293,51.678-200.555,37.181-272.993-35.259c-85.531-85.531-87.764-223.282-6.729-311.558
				l3.915,3.915c1.953,1.953,4.512,2.929,7.071,2.929c2.559,0,5.118-0.977,7.071-2.929c3.905-3.905,3.905-10.237,0-14.142l-11-11
				c-2.259-2.259-5.329-3.203-8.273-2.848c-2.261,0.197-4.468,1.157-6.199,2.888C56.896,66.836,31.38,128.433,31.38,193.951
				s25.515,127.115,71.843,173.444c46.619,46.619,108.385,71.177,170.962,71.86V482H221.85c-5.522,0-10,4.477-10,10s4.478,10,10,10
				h124.672c5.522,0,10-4.477,10-10s-4.478-10-10-10h-52.336v-43.332c36.63-2.591,73.016-13.428,106.277-32.896
				c4.766-2.79,6.368-8.915,3.579-13.682C401.252,387.325,395.128,385.721,390.359,388.512z"/>
			<path d="M435.969,353.252c-3.76,3.76-7.687,7.422-11.671,10.886c-4.169,3.623-4.611,9.939-0.988,14.107
				c1.978,2.275,4.757,3.44,7.552,3.44c2.326,0,4.663-0.807,6.557-2.453c4.335-3.768,8.605-7.751,12.693-11.838
				c3.905-3.905,3.905-10.237,0-14.143C446.205,349.347,439.875,349.347,435.969,353.252z"/>
		</g>
	</g>
</g>
<g>
</g>
<g>
</g>
<g>
</g>
<g>
</g>
<g>
</g>
<g>
</g>
<g>
</g>
<g>
</g>
<g>
</g>
<g>
</g>
<g>
</g>
<g>
</g>
<g>
</g>
<g>
</g>
<g>
</g>
</svg>
